<svg width="48" height="48" xmlns="http://www.w3.org/2000/svg">
	<g fill="none" fill-rule="evenodd" id="svg_1">
		<path d="m7.41448,38.72809zm20.34567,-20.90985l4.27317,0l0,4.36829l2.1605,0c0.99793,0 2.02408,-0.17772 2.96894,-0.49784c0.46439,-0.15754 0.98541,-0.37656 1.44345,-0.65221c-0.60324,-0.78751 -0.91122,-1.78189 -1.00167,-2.76207c-0.12334,-1.33338 0.14577,-3.06873 1.04802,-4.11226l0.44926,-0.51952l0.53522,0.43038c1.34758,1.08259 2.481,2.59556 2.68077,4.32026c1.62267,-0.47729 3.5279,-0.36441 4.95808,0.46103l0.5868,0.33862l-0.30872,0.60287c-1.20967,2.36065 -3.73869,3.09209 -6.2111,2.96259c-3.69964,9.2148 -11.75429,13.57729 -21.52038,13.57729c-5.04572,0 -9.67471,-1.88617 -12.31082,-6.36266l-0.04317,-0.07288l-0.38404,-0.78153c-0.89104,-1.97045 -1.18705,-4.12908 -0.98635,-6.28604l0.06036,-0.64604l3.65423,0l0,-4.36829l4.27298,0l0,-4.27317l8.54652,0l0,-4.27317l5.12795,0l0,8.54633" fill="#364548" id="svg_2"/>
		<path d="m41.54402,19.43437c0.28648,-2.22685 -1.37991,-3.97584 -2.41335,-4.80633c-1.19098,1.37692 -1.37599,4.98555 0.49243,6.50487c-1.04278,0.92617 -3.23992,1.76563 -5.48975,1.76563l-27.38613,0c-0.21865,2.3485 0.19361,4.51125 1.13529,6.36228l0.31153,0.56998a10.56537,10.56537 0 0 0 0.64567,0.96878c1.12594,0.07232 2.16405,0.09718 3.11377,0.07625l0.00037,0c1.86636,-0.04111 3.38923,-0.26163 4.54339,-0.66155a0.32909,0.32909 0 0 1 0.21547,0.62156c-0.15361,0.05345 -0.31358,0.10316 -0.47878,0.15044l-0.00056,0c-0.90879,0.25957 -1.88336,0.43412 -3.14068,0.51167c0.07475,0.00131 -0.07774,0.01121 -0.07812,0.01121c-0.0428,0.0028 -0.09662,0.00897 -0.1396,0.01121c-0.49485,0.02784 -1.02895,0.03364 -1.57501,0.03364c-0.59726,0 -1.18537,-0.01121 -1.843,-0.04485l-0.01682,0.01121c2.28179,2.56472 5.84968,4.10292 10.32206,4.10292c9.46503,0 17.49334,-4.1958 21.04852,-13.61542c2.52211,0.25883 4.94612,-0.38441 6.0487,-2.53688c-1.75629,-1.01344 -4.0149,-0.69033 -5.31539,-0.03663" fill="#22A0C8" id="svg_3"/>
		<path d="m41.54402,19.43437c0.28648,-2.22685 -1.37991,-3.97584 -2.41335,-4.80633c-1.19098,1.37692 -1.37599,4.98555 0.49243,6.50487c-1.04278,0.92617 -3.23992,1.76563 -5.48975,1.76563l-25.7644,0c-0.11175,3.59667 1.22293,6.32678 3.58433,7.97729l0.00056,0c1.86636,-0.04111 3.38923,-0.26163 4.54339,-0.66155a0.32909,0.32909 0 0 1 0.21547,0.62156c-0.15361,0.05345 -0.31358,0.10316 -0.47878,0.15044l-0.00056,0c-0.90879,0.25957 -1.96708,0.45654 -3.2244,0.5341c-0.00037,0 -0.03046,-0.02897 -0.03083,-0.02897c3.22123,1.65238 7.89189,1.6464 13.24689,-0.41057c6.00441,-2.30683 11.5919,-6.70147 15.49037,-11.72794c-0.05868,0.02654 -0.11586,0.05363 -0.17137,0.08148" fill="#37B1D9" id="svg_4"/>
		<path d="m6.7986,25.75199c0.17006,1.25807 0.53821,2.43596 1.0839,3.50883l0.31153,0.56998a10.54594,10.54594 0 0 0 0.64567,0.96878c1.12613,0.07232 2.16424,0.09718 3.11415,0.07625c1.86636,-0.04111 3.38923,-0.26163 4.54339,-0.66155a0.32909,0.32909 0 0 1 0.21547,0.62156c-0.15361,0.05345 -0.31358,0.10316 -0.47878,0.15044l-0.00056,0c-0.90879,0.25957 -1.96148,0.44533 -3.2188,0.52307c-0.04317,0.00262 -0.11848,0.00318 -0.16202,0.00561c-0.49448,0.02766 -1.02316,0.04466 -1.56941,0.04466c-0.59708,0 -1.2078,-0.0114 -1.86505,-0.04485c2.28179,2.56472 5.87173,4.10853 10.34411,4.10853c8.10306,0 15.15287,-3.07565 19.24458,-9.8713l-32.20816,0" fill="#1B81A5" id="svg_5"/>
		<path d="m8.61544,25.75199c0.48439,2.20891 1.64846,3.94295 3.3384,5.12384c1.86636,-0.04111 3.38923,-0.26163 4.54339,-0.66155a0.32909,0.32909 0 0 1 0.21547,0.62156c-0.15361,0.05345 -0.31358,0.10316 -0.47878,0.15044l-0.00056,0c-0.90879,0.25957 -1.98372,0.44533 -3.24122,0.52307c3.22104,1.65201 7.87824,1.62827 13.23288,-0.42851c3.23935,-1.24461 6.35705,-3.09733 9.15406,-5.32884l-26.76364,0" fill="#1D91B4" id="svg_6"/>
		<path d="m10.46423,18.53044l3.70356,0l0,3.70356l-3.70356,0l0,-3.70356zm0.30854,0.30872l0.29228,0l0,3.0863l-0.29228,0l0,-3.0863zm0.54942,0l0.30405,0l0,3.0863l-0.30386,0l0,-3.0863l-0.00019,0zm0.56101,0l0.30405,0l0,3.0863l-0.30405,0l0,-3.0863zm0.56138,0l0.30386,0l0,3.0863l-0.30386,0l0,-3.0863zm0.5612,0l0.30386,0l0,3.0863l-0.30386,0l0,-3.0863zm0.56101,0l0.29247,0l0,3.0863l-0.29247,0l0,-3.0863zm1.17061,-4.58189l3.70375,0l0,3.70337l-3.70393,0l0,-3.70337l0.00019,0zm0.30872,0.30872l0.29209,0l0,3.08611l-0.29209,0l0,-3.08611zm0.54942,0l0.30386,0l0,3.08611l-0.30368,0l0,-3.08611l-0.00019,0zm0.56101,0l0.30386,0l0,3.08611l-0.30386,0l0,-3.08611zm0.5612,0l0.30386,0l0,3.08611l-0.30386,0l0,-3.08611zm0.5612,0l0.30405,0l0,3.08611l-0.30405,0l0,-3.08611zm0.56101,0l0.29265,0l0,3.08611l-0.29265,0l0,-3.08611z" fill="#23A3C2" id="svg_7"/>
		<path d="m14.73739,18.53044l3.70375,0l0,3.70356l-3.70393,0l0,-3.70356l0.00019,0zm0.30872,0.30872l0.29209,0l0,3.0863l-0.29209,0l0,-3.0863zm0.54942,0l0.30386,0l0,3.0863l-0.30368,0l0,-3.0863l-0.00019,0zm0.56101,0l0.30386,0l0,3.0863l-0.30386,0l0,-3.0863zm0.5612,0l0.30386,0l0,3.0863l-0.30386,0l0,-3.0863zm0.5612,0l0.30405,0l0,3.0863l-0.30405,0l0,-3.0863zm0.56101,0l0.29265,0l0,3.0863l-0.29265,0l0,-3.0863z" fill="#34BBDE" id="svg_8"/>
		<path d="m19.01075,18.53044l3.70356,0l0,3.70356l-3.70356,0l0,-3.70356zm0.30854,0.30872l0.29209,0l0,3.0863l-0.29209,0l0,-3.0863zm0.54942,0l0.30386,0l0,3.0863l-0.30386,0l0,-3.0863zm0.5612,0l0.30386,0l0,3.0863l-0.30386,0l0,-3.0863zm0.5612,0l0.30386,0l0,3.0863l-0.30386,0l0,-3.0863zm0.56101,0l0.30424,0l0,3.0863l-0.30424,0l0,-3.0863zm0.5612,0l0.29228,0l0,3.0863l-0.29228,0l0,-3.0863z" fill="#23A3C2" id="svg_9"/>
		<path d="m19.01075,14.25727l3.70356,0l0,3.70337l-3.70356,0l0,-3.70337zm0.30854,0.30872l0.29209,0l0,3.08611l-0.29209,0l0,-3.08611zm0.54942,0l0.30386,0l0,3.08611l-0.30386,0l0,-3.08611zm0.5612,0l0.30386,0l0,3.08611l-0.30386,0l0,-3.08611zm0.5612,0l0.30386,0l0,3.08611l-0.30386,0l0,-3.08611zm0.56101,0l0.30424,0l0,3.08611l-0.30424,0l0,-3.08611zm0.5612,0l0.29228,0l0,3.08611l-0.29228,0l0,-3.08611zm1.17061,3.96444l3.70356,0l0,3.70356l-3.70356,0l0,-3.70356zm0.30872,0.30872l0.29209,0l0,3.0863l-0.29209,0l0,-3.0863zm0.54942,0l0.30386,0l0,3.0863l-0.30386,0l0,-3.0863zm0.56101,0l0.30386,0l0,3.0863l-0.30386,0l0,-3.0863zm0.5612,0l0.30405,0l0,3.0863l-0.30405,0l0,-3.0863zm0.5612,0l0.30405,0l0,3.0863l-0.30405,0l0,-3.0863zm0.5612,0l0.29228,0l0,3.0863l-0.29228,0l0,-3.0863z" fill="#34BBDE" id="svg_10"/>
		<path d="m23.28392,14.25727l3.70356,0l0,3.70337l-3.70356,0l0,-3.70337zm0.30872,0.30872l0.29209,0l0,3.08611l-0.29209,0l0,-3.08611zm0.54942,0l0.30386,0l0,3.08611l-0.30386,0l0,-3.08611zm0.56101,0l0.30386,0l0,3.08611l-0.30386,0l0,-3.08611zm0.5612,0l0.30405,0l0,3.08611l-0.30405,0l0,-3.08611zm0.5612,0l0.30405,0l0,3.08611l-0.30405,0l0,-3.08611zm0.5612,0l0.29228,0l0,3.08611l-0.29228,0l0,-3.08611z" fill="#23A3C2" id="svg_11"/>
		<path d="m23.28392,9.98392l3.70356,0l0,3.70393l-3.70356,0l0,-3.70393zm0.30872,0.30854l0.29209,0l0,3.08649l-0.29209,0l0,-3.08667l0,0.00019zm0.54942,0l0.30386,0l0,3.08649l-0.30386,0l0,-3.08667l0,0.00019zm0.56101,0l0.30386,0l0,3.08649l-0.30386,0l0,-3.08667l0,0.00019zm0.5612,0l0.30405,0l0,3.08649l-0.30405,0l0,-3.08667l0,0.00019zm0.5612,0l0.30405,0l0,3.08649l-0.30405,0l0,-3.08667l0,0.00019zm0.5612,0l0.29228,0l0,3.08649l-0.29228,0l0,-3.08667l0,0.00019z" fill="#34BBDE" id="svg_12"/>
		<path d="m27.55708,18.53044l3.70356,0l0,3.70356l-3.70356,0l0,-3.70356zm0.30835,0.30872l0.29247,0l0,3.0863l-0.29228,0l0,-3.0863l-0.00019,0zm0.54942,0l0.30405,0l0,3.0863l-0.30386,0l0,-3.0863l-0.00019,0zm0.56138,0l0.30405,0l0,3.0863l-0.30405,0l0,-3.0863zm0.56101,0l0.30405,0l0,3.0863l-0.30405,0l0,-3.0863zm0.56138,0l0.30386,0l0,3.0863l-0.30386,0l0,-3.0863zm0.56101,0l0.29228,0l0,3.0863l-0.29228,0l0,-3.0863z" fill="#23A3C2" id="svg_13"/>
		<path d="m18.20923,28.2386a1.02185,1.02185 0 1 1 -0.00037,2.04352a1.02185,1.02185 0 0 1 0.00037,-2.04352" fill="#D3ECEC" id="svg_14"/>
		<path d="m18.20923,28.52844c0.09344,0 0.18258,0.01757 0.26481,0.04952a0.29863,0.29863 0 0 0 0.14913,0.5569c0.11306,0 0.21117,-0.0626 0.262,-0.1553a0.73163,0.73163 0 1 1 -0.67594,-0.45113m-18.07191,-2.40718l47.52829,0c-1.03475,-0.26238 -3.27411,-0.61707 -2.90484,-1.97344c-1.88187,2.17751 -6.41984,1.52773 -7.56522,0.45412c-1.27526,1.84972 -8.69995,1.1465 -9.21779,-0.29452c-1.59893,1.87645 -6.55327,1.87645 -8.15221,0c-0.51821,1.44102 -7.94272,2.14425 -9.21816,0.29433c-1.14519,1.0738 -5.68298,1.72358 -7.56485,-0.45374c0.36927,1.35618 -1.87009,1.71087 -2.90522,1.97344" fill="#364548" id="svg_15"/>
		<path d="m20.92513,35.60124c-2.53034,-1.2007 -3.91903,-2.83308 -4.69178,-4.61478c-0.94,0.26817 -2.06968,0.43973 -3.3825,0.51336c-0.49448,0.02766 -1.01475,0.04186 -1.56044,0.04186c-0.62941,0 -1.29264,-0.01869 -1.98895,-0.0555c2.32047,2.31916 5.17504,4.1046 10.46072,4.13712c0.3902,0 0.77742,-0.00748 1.16295,-0.02205" fill="#BDD9D7" id="svg_16"/>
		<path d="m17.17317,32.63062c-0.35002,-0.47523 -0.68958,-1.0725 -0.93925,-1.64453c-0.94,0.26854 -2.07005,0.4401 -3.38306,0.51392c0.90188,0.48944 2.19153,0.94299 4.3225,1.13062" fill="#D3ECEC" id="svg_17"/>
	</g>
</svg>