<svg width="48" height="48" xmlns="http://www.w3.org/2000/svg">
	<g id="svg_10">
		<path id="svg_1" fill="#02303a" d="m47.10847,21.29619c1.0856,-2.49688 1.05846,-4.96663 0.4071,-6.92071c-0.8142,-2.38832 -4.15243,-5.53657 -5.21089,-4.28813c-0.1357,0.16284 -2.06264,-0.05428 -2.36118,0.35282c-0.46138,0.59708 -0.18998,0.78706 0.02714,1.00418c0.6785,0.59708 2.38832,1.24844 3.17539,3.28395c0.32568,0.86848 1.0856,2.87684 -0.24426,4.09815c-1.4927,1.357 -3.17539,1.68268 -10.06896,-4.72237c-7.32781,-6.81215 -17.15251,-4.04387 -20.40931,-2.95827s-4.74951,2.1712 -3.47393,4.66809c1.73696,3.41965 1.16702,2.36118 2.87684,5.18375c2.68686,4.47811 8.60339,-2.06264 8.60339,-2.06264c-4.39669,6.62217 -8.16915,5.02091 -9.60758,2.714c-1.30272,-2.08978 -2.3069,-4.47811 -2.3069,-4.47811c-11.12742,4.01673 -8.11487,21.71204 -8.11487,21.71204l5.53657,0c1.41128,-6.51361 6.45933,-6.26935 7.30067,0l4.20671,0c3.71819,-12.72868 11.69736,0 11.69736,0l4.72237,0c0,-6.78501 -0.70564,-9.33618 2.76828,-9.8247c5.91653,-0.78706 8.68481,-3.55535 10.47606,-7.76205z" class="st0"/>
		<g id="svg_6">
			<path id="svg_7" fill="#fff" d="m27.89332,18.47362s2.55116,0.84134 5.97081,1.98122c-0.18998,0.92276 -1.8998,2.68686 -4.09815,1.92694c-2.93112,-0.9499 -1.87266,-3.90817 -1.87266,-3.90817z" class="st2"/>
			<ellipse id="svg_8" fill="#02303a" ry="5.5" rx="5.7" cy="74.61273" cx="109.85378" class="st0" transform="matrix(0.269881, -0.02868, 0.02868, 0.269881, -0.990016, 3.3332)"/>
		</g>
		<path id="svg_9" fill="#02303a" d="m39.97064,11.47149c0.18998,0.16284 0.43424,0.32568 0.6785,0.48852c1.13988,-0.9499 2.63258,-0.92276 3.90817,-1.43842c-1.11274,-1.03132 -2.90398,-1.81838 -3.44679,-1.16702c-0.1357,0.16284 -0.84134,0.70564 -1.13988,1.11274c-0.48852,0.59708 -0.24426,0.78706 0,1.00418z" class="st0"/>
	</g>
</svg>