<svg xmlns="http://www.w3.org/2000/svg" width="500" height="500" viewBox="0 0 500 500" version="1.1"><path d="M 97 42.416 C 97 43.113, 111.581 68.353, 116.794 76.679 C 119.487 80.980, 126.564 93.275, 132.520 104 C 138.476 114.725, 145.071 126.320, 147.175 129.768 C 149.279 133.215, 151 136.256, 151 136.526 C 151 136.796, 155.723 144.870, 161.495 154.468 C 167.267 164.066, 173.135 174.510, 174.535 177.676 C 175.935 180.842, 177.400 183.672, 177.791 183.966 C 178.181 184.260, 179.517 186.525, 180.761 189 C 182.005 191.475, 184.197 195.525, 185.633 198 C 188.907 203.645, 187.813 202.517, 180.669 192.880 C 177.561 188.690, 174.340 184.697, 173.510 184.008 C 172.679 183.319, 172 182.205, 172 181.533 C 172 180.860, 171.100 179.495, 170 178.500 C 167.479 176.219, 167.422 177.378, 169.886 180.846 C 170.923 182.306, 172.440 185.075, 173.257 187 C 174.074 188.925, 178.963 195.907, 184.121 202.516 C 219.286 247.568, 234.332 281.943, 234.230 317 C 234.190 330.941, 232.867 339.111, 228.885 350 C 226.397 356.804, 218.121 372.464, 213.974 378.214 C 208.409 385.930, 196.693 397.981, 186.250 406.729 C 180.613 411.452, 176 415.500, 176 415.725 C 176 416.813, 189.556 405.449, 198.325 397.009 C 221.479 374.723, 232.828 352.909, 236.058 324.480 C 236.912 316.965, 236.458 308.447, 234.361 292.647 C 233.911 289.261, 234.092 287.561, 234.958 287.026 C 235.808 286.500, 236.435 281.249, 236.946 270.379 L 237.691 254.500 237.975 271 C 238.131 280.075, 238.162 289.588, 238.045 292.139 C 237.928 294.691, 238.318 297.079, 238.912 297.446 C 240.236 298.264, 241.430 295.373, 243.023 287.500 C 243.690 284.200, 244.815 278.800, 245.523 275.500 C 246.231 272.200, 247.558 265.450, 248.473 260.500 C 249.387 255.550, 250.763 248.350, 251.530 244.500 C 252.296 240.650, 254.315 230.075, 256.015 221 C 257.716 211.925, 259.748 201.350, 260.531 197.500 C 261.315 193.650, 263.340 183.075, 265.031 174 C 266.723 164.925, 268.739 154.350, 269.510 150.500 C 270.282 146.650, 271.904 138.230, 273.116 131.790 C 274.328 125.349, 275.621 120.266, 275.990 120.494 C 276.661 120.908, 275.555 128.469, 272.624 143.500 C 270.884 152.423, 267.745 169.104, 265.379 182 C 264.521 186.675, 263.219 193.650, 262.485 197.500 C 261.751 201.350, 260.453 208.325, 259.601 213 C 256.231 231.486, 255.039 237.950, 252.959 249 C 249.501 267.377, 248.904 271.214, 249.316 272.392 C 249.530 273.001, 250.042 271.475, 250.455 269 C 250.867 266.525, 252.921 255.725, 255.020 245 C 257.119 234.275, 259.804 220.325, 260.987 214 C 262.170 207.675, 264.206 197.100, 265.510 190.500 C 266.814 183.900, 268.821 173.325, 269.969 167 C 271.118 160.675, 272.486 153.700, 273.009 151.500 C 274.102 146.902, 275.663 138.677, 277.429 128.208 C 278.437 122.235, 278.419 120.607, 277.330 119.208 C 274.433 115.487, 274.101 116.712, 264.479 166.500 C 261.821 180.255, 259.098 195.621, 258.010 203 C 257.402 207.125, 256.494 212.525, 255.993 215 C 255.491 217.475, 253.703 226.925, 252.018 236 C 245.451 271.378, 243.063 281.464, 241.602 279.999 C 240.325 278.718, 240.472 236.669, 242.034 156.051 C 242.865 113.179, 242.805 104.377, 241.679 103.251 C 238.226 99.798, 238.018 103.137, 236.956 179.105 C 236.384 220.022, 235.523 255.750, 235.043 258.500 C 234.564 261.250, 234.419 264.850, 234.722 266.500 C 235.025 268.150, 234.916 269.167, 234.480 268.760 C 234.043 268.352, 233.356 266.102, 232.952 263.760 C 232.549 261.417, 231.702 257.025, 231.069 254 C 230.436 250.975, 229.296 244, 228.535 238.500 C 227.231 229.072, 223.942 206.960, 220.502 184.500 C 218.759 173.121, 215.403 150.655, 214.004 141 C 213.485 137.425, 212.368 130, 211.521 124.500 C 210.675 119, 209.325 109.683, 208.522 103.796 C 206.660 90.152, 206.098 88, 204.392 88 C 203.626 88, 203.002 88.563, 203.005 89.250 C 203.013 91.008, 206.983 118.178, 207.499 120 C 207.732 120.825, 208.392 125.100, 208.964 129.500 C 209.536 133.900, 210.647 141.775, 211.432 147 C 214.035 164.327, 214.877 170.441, 215.494 176.500 C 216.148 182.920, 217.320 191.765, 219.536 207 C 220.296 212.225, 221.388 219.875, 221.962 224 C 222.536 228.125, 223.434 233.975, 223.958 237 C 225.659 246.829, 225.892 250, 224.912 250 C 223.337 250, 220.613 241.730, 205.315 190.500 C 204.494 187.750, 202.771 181.450, 201.488 176.500 C 200.204 171.550, 198.444 165.137, 197.577 162.250 C 196.709 159.363, 195.374 154.863, 194.608 152.250 C 193.426 148.218, 183.014 114.089, 173.037 81.549 C 171.528 76.626, 169.777 72.426, 169.146 72.215 C 167.394 71.631, 167.781 74.735, 170.536 83.361 C 171.917 87.685, 173.228 92.185, 173.449 93.361 C 173.670 94.538, 173.916 95.500, 173.995 95.500 C 174.073 95.500, 174.312 96.625, 174.526 98 C 174.884 100.313, 182.626 126.159, 200.137 183.500 C 204 196.150, 207.799 208.638, 208.580 211.250 C 209.361 213.863, 210.712 218.363, 211.583 221.250 C 214.532 231.029, 215.823 237, 214.988 237 C 213.911 237, 208.338 225.229, 200.784 207 C 194.213 191.143, 192.689 187.669, 186.750 175 C 184.558 170.325, 180.520 161.325, 177.777 155 C 175.033 148.675, 170.086 137.694, 166.783 130.597 C 163.480 123.500, 160.671 117.200, 160.540 116.597 C 160.173 114.905, 156.273 105.705, 146.723 84 C 135.662 58.862, 134.005 55.595, 132.885 56.715 C 131.704 57.896, 139.331 75.935, 163.234 128.500 C 166.235 135.100, 169.917 143.650, 171.415 147.500 C 172.914 151.350, 174.750 155.850, 175.496 157.500 C 193.428 197.171, 203.295 220.038, 202.726 220.607 C 202.524 220.810, 201.442 219.293, 200.322 217.238 C 198.154 213.256, 180.298 182.870, 167.716 161.750 C 163.538 154.738, 160.296 149, 160.511 149 C 160.726 149, 158.974 145.738, 156.617 141.750 C 154.261 137.762, 147.453 125.950, 141.490 115.500 C 135.527 105.050, 127.868 91.998, 124.470 86.496 C 121.071 80.994, 117.951 75.421, 117.536 74.112 C 115.995 69.257, 99.302 42, 97.870 42 C 97.392 42, 97 42.187, 97 42.416 M 239.537 134.199 C 239.155 150.315, 238.990 167.775, 239.171 173 C 239.352 178.225, 239.875 165.250, 240.333 144.166 C 240.791 123.083, 240.955 105.622, 240.699 105.365 C 240.442 105.108, 239.919 118.084, 239.537 134.199 M 309.173 135.750 C 308.194 137.660, 301.248 156.206, 298.219 165 C 295.974 171.516, 282.286 207.880, 277.515 220 C 272.486 232.778, 260.482 265.439, 257.527 274.386 C 256.095 278.723, 254.265 283.211, 253.461 284.359 C 252.658 285.506, 252 287.190, 252 288.100 C 252 289.010, 251.374 290.275, 250.609 290.910 C 249.496 291.834, 249.025 291.509, 248.253 289.282 C 247.723 287.752, 247.642 285.600, 248.074 284.500 C 248.895 282.409, 249.322 273.344, 248.564 274.103 C 248.324 274.342, 247.409 279.030, 246.530 284.519 C 245.651 290.009, 244.700 295.625, 244.416 297 C 244.132 298.375, 243.534 301.750, 243.087 304.500 C 242.640 307.250, 241.957 310.242, 241.569 311.149 C 241.181 312.056, 241.348 313.097, 241.939 313.462 C 242.530 313.828, 243.279 313.311, 243.604 312.313 C 243.928 311.316, 244.798 309.150, 245.537 307.500 C 248.880 300.034, 270.329 244.476, 274.490 232.500 C 279.157 219.073, 308.992 139.893, 310.393 137.220 C 311.144 135.786, 311.982 135.162, 312.352 135.761 C 313.089 136.954, 309.777 146.736, 297.565 179.433 C 292.854 192.047, 289.014 202.622, 289.030 202.933 C 289.121 204.619, 292.161 197.339, 300.233 176.111 C 315 137.273, 314.899 137.572, 313.853 135.702 C 312.621 133.500, 310.315 133.524, 309.173 135.750 M 345.001 151.750 C 343.818 153.262, 340.071 159.356, 336.675 165.292 C 333.279 171.228, 324.378 186.753, 316.896 199.792 C 309.415 212.831, 300.667 228.225, 297.457 234 C 294.247 239.775, 290.731 246.075, 289.643 248 C 288.555 249.925, 288.152 251.050, 288.747 250.500 C 289.628 249.685, 317.692 201.156, 327.203 184 C 336.004 168.125, 346.347 151, 347.135 151 C 349.475 151, 348.862 154.428, 345.404 160.688 C 343.335 164.435, 335.257 178.525, 327.453 192 C 319.648 205.475, 309.098 223.925, 304.007 233 C 298.917 242.075, 294.556 249.838, 294.317 250.250 C 294.078 250.662, 294.082 251, 294.326 251 C 294.570 251, 298.599 244.588, 303.280 236.750 C 312.226 221.771, 313.057 220.321, 320.032 207.500 C 322.426 203.100, 330.385 189.031, 337.720 176.235 C 348.984 156.584, 350.890 152.662, 349.992 150.985 C 348.569 148.326, 347.558 148.481, 345.001 151.750 M 380.879 167.044 L 378.500 169.119 381.080 167.556 C 382.499 166.696, 383.961 166.295, 384.330 166.663 C 386.053 168.387, 384.371 171.578, 376.432 181.640 C 371.720 187.613, 362.263 199.700, 355.417 208.500 C 348.572 217.300, 340.097 228.100, 336.585 232.500 C 317.203 256.784, 299.969 278.686, 298.080 281.434 C 293.797 287.668, 303.306 277.033, 311.338 266.608 C 316.377 260.067, 330.078 242.517, 341.785 227.608 C 353.492 212.698, 365.516 197.350, 368.505 193.500 C 371.494 189.650, 376.653 183.063, 379.970 178.862 C 386.054 171.156, 387.138 168.189, 384.629 166.107 C 383.574 165.231, 382.712 165.446, 380.879 167.044 M 162.970 170.944 C 164.044 172.951, 166 174.597, 166 173.493 C 166 172.119, 163.868 169, 162.930 169 C 162.277 169, 162.291 169.675, 162.970 170.944 M 373.221 175.934 C 370.348 179.198, 362.823 188.536, 356.498 196.684 C 350.173 204.833, 343.053 213.975, 340.676 217 C 338.299 220.025, 332.337 227.623, 327.427 233.885 C 322.517 240.147, 315.564 248.922, 311.975 253.385 C 308.386 257.848, 304.361 263.075, 303.030 265 C 301.699 266.925, 298.088 271.650, 295.005 275.500 C 291.922 279.350, 285.848 287, 281.507 292.500 C 277.166 298, 272.464 303.687, 271.057 305.137 C 269.651 306.587, 267.793 308.801, 266.928 310.056 C 265.205 312.559, 263 312.009, 263 309.076 C 263 308.082, 263.900 306.126, 265 304.727 C 266.100 303.329, 267 301.790, 267 301.307 C 267 300.825, 270.375 294.475, 274.500 287.197 C 278.625 279.920, 282 273.785, 282 273.565 C 282 273.345, 283.986 269.806, 286.414 265.699 C 291.678 256.796, 294.609 251.119, 293.230 252.500 C 292.077 253.654, 271.477 289.452, 264.389 302.619 C 261.759 307.503, 258.569 313.300, 257.299 315.500 C 256.030 317.700, 254.093 321.300, 252.996 323.500 C 251.899 325.700, 250.326 328.374, 249.501 329.441 C 248.675 330.509, 248.014 332.309, 248.032 333.441 C 248.061 335.356, 248.219 335.316, 250.282 332.877 C 251.502 331.434, 253.625 328.796, 255 327.015 C 257.812 323.373, 267.566 311.317, 272.003 306 C 275.008 302.398, 287.380 286.714, 307.828 260.584 C 314.248 252.381, 326.477 236.856, 335.005 226.084 C 343.532 215.313, 351.857 204.764, 353.505 202.642 C 367.649 184.423, 372.966 177.627, 375.834 174.100 C 380.764 168.038, 379.215 169.125, 373.221 175.934 M 390.274 207.169 C 375.674 221.651, 362.522 234.625, 361.048 236 C 359.574 237.375, 344.442 252.225, 327.420 269 C 273.928 321.719, 271.910 323.591, 270.772 321.557 C 270.019 320.211, 270.292 319.133, 271.893 317.139 C 273.058 315.687, 274.780 313.375, 275.721 312 C 276.661 310.625, 280.065 305.900, 283.284 301.500 C 292.375 289.076, 284.229 298.747, 271.197 315.851 C 264.764 324.294, 258.854 332.169, 258.065 333.351 C 257.276 334.533, 255.313 336.924, 253.703 338.663 C 252.093 340.403, 250.966 342.397, 251.198 343.094 C 251.711 344.634, 265.729 331.182, 352.988 245.404 C 410.668 188.702, 417.163 182.484, 419.033 182.180 C 420.617 181.923, 421 182.436, 421 184.814 C 421 187.027, 419.934 188.718, 416.750 191.560 C 413.181 194.745, 300.734 305.201, 290.011 316.054 C 261.790 344.621, 253.787 353, 254.726 353 C 255.342 353, 257.123 351.724, 258.683 350.163 C 260.243 348.603, 262.044 347.141, 262.686 346.913 C 263.328 346.686, 265.515 345.150, 267.546 343.500 C 276.887 335.913, 280.186 333.306, 283.710 330.729 C 292.839 324.052, 325 298.842, 325 298.362 C 325 298.070, 323.313 299.156, 321.250 300.774 C 319.188 302.391, 310.750 308.947, 302.500 315.342 C 294.250 321.737, 285.764 328.326, 283.642 329.985 C 279.217 333.443, 277.999 333.716, 278.003 331.250 C 278.006 329.435, 289.908 317.480, 372.798 236.024 C 418.427 191.185, 422.073 187.354, 421.798 184.540 C 421.571 182.223, 420.944 181.421, 419.160 181.169 C 417.255 180.899, 411.875 185.742, 390.274 207.169 M 447.131 201.085 C 444.309 203.332, 442 205.395, 442 205.670 C 442 205.945, 444.354 204.296, 447.231 202.005 C 451.157 198.880, 453.139 197.940, 455.178 198.239 C 456.672 198.459, 457.667 198.270, 457.388 197.819 C 456.208 195.909, 451.916 197.275, 447.131 201.085 M 287.111 207.111 C 286.495 208.878, 286.166 210.499, 286.380 210.713 C 286.594 210.927, 287.273 209.656, 287.889 207.889 C 288.505 206.122, 288.834 204.501, 288.620 204.287 C 288.406 204.073, 287.727 205.344, 287.111 207.111 M 238.417 223.500 C 238.418 233.950, 238.566 238.089, 238.746 232.698 C 238.926 227.307, 238.925 218.757, 238.744 213.698 C 238.563 208.639, 238.416 213.050, 238.417 223.500 M 428.928 215.296 C 422.563 220.358, 409.211 230.936, 399.256 238.803 C 389.302 246.669, 380.567 253.869, 379.846 254.803 C 378.630 256.376, 378.679 256.385, 380.517 254.916 C 401.698 237.999, 414.438 227.892, 423 221.214 C 434.177 212.496, 441.822 206.070, 441 206.083 C 440.725 206.088, 435.292 210.233, 428.928 215.296 M 417.500 234.620 C 399.900 248.628, 378.075 265.882, 369 272.962 C 359.925 280.042, 350.700 287.456, 348.500 289.438 C 344.341 293.184, 363.898 278.197, 391.500 256.487 C 400.300 249.566, 414.925 238.095, 424 230.998 C 439.352 218.990, 451.168 209.048, 450 209.120 C 449.725 209.137, 435.100 220.612, 417.500 234.620 M 272.632 245.802 C 265.675 264.422, 258.460 284.121, 256.599 289.578 C 254.737 295.035, 251.335 304.573, 249.039 310.774 C 242.884 327.392, 244.549 328.697, 252.518 313.500 C 253.383 311.850, 256.292 306.900, 258.981 302.500 C 265.299 292.164, 285.388 257.250, 286.887 254 C 287.862 251.887, 287.844 251.790, 286.770 253.374 C 283.139 258.731, 280.872 262.379, 276.995 269.102 C 264.676 290.469, 257.623 302, 256.874 302 C 255.158 302, 254.876 297.140, 256.419 294.157 C 257.288 292.475, 258 290.523, 258 289.819 C 258 289.114, 259.771 284.029, 261.937 278.519 C 268.108 262.812, 282.791 223.026, 284.438 217.547 C 288.014 205.649, 284.428 214.233, 272.632 245.802 M 463.442 228.633 C 451.924 236.132, 435.525 246.771, 427 252.276 C 400.500 269.390, 389 277.072, 389 277.662 C 389 277.975, 390.012 277.564, 391.250 276.751 C 398.884 271.731, 425.291 254.534, 441.500 244.025 C 486.237 215.022, 486.270 215, 484.692 215 C 484.522 215, 474.960 221.135, 463.442 228.633 M 493 218.863 C 493 219.337, 484.900 225.036, 475 231.528 C 465.100 238.019, 457 243.497, 457 243.700 C 457 244.360, 460.220 242.360, 477.250 231.118 C 491.427 221.760, 496.085 218, 493.500 218 C 493.225 218, 493 218.388, 493 218.863 M 433.806 258.274 C 423.524 264.998, 409.226 274.273, 402.032 278.884 C 394.838 283.496, 388.718 287.647, 388.432 288.110 C 387.655 289.368, 443.647 253.465, 450.547 248.282 C 457.115 243.348, 451.540 246.675, 433.806 258.274 M 374 258.783 C 361.407 268.460, 347.271 279.932, 346 281.508 C 344.662 283.167, 373.345 260.826, 376.964 257.390 C 379.321 255.153, 377.785 255.875, 374 258.783 M 322.651 309.476 C 307.102 321.770, 300.422 327.409, 305.558 323.904 C 313.282 318.633, 341.596 295.630, 339.809 296.077 C 339.639 296.120, 331.918 302.149, 322.651 309.476 M 368.732 300.536 C 366.679 301.931, 365 303.287, 365 303.550 C 365 303.813, 366.800 302.837, 369 301.381 C 372.493 299.070, 373.674 298, 372.732 298 C 372.585 298, 370.785 299.141, 368.732 300.536 M 352 301.206 C 342.853 306.883, 299.382 335.380, 298.500 336.277 C 296.963 337.839, 298.874 336.665, 318.500 323.986 C 328.400 317.591, 340.887 309.531, 346.250 306.076 C 354.598 300.698, 356.971 298.935, 355.750 299.017 C 355.613 299.026, 353.925 300.011, 352 301.206 M 253.750 303.577 C 253.338 303.993, 253 305.248, 253 306.367 C 253 307.838, 253.302 308.098, 254.094 307.306 C 254.695 306.705, 255.033 305.449, 254.844 304.517 C 254.655 303.584, 254.162 303.161, 253.750 303.577 M 346.500 314.959 C 329.295 326.249, 324.368 329.909, 334.447 323.913 C 347.015 316.437, 364.377 304.446, 361.750 305.058 C 361.613 305.090, 354.750 309.546, 346.500 314.959 M 260.183 314.217 C 258.773 315.627, 258.616 318, 259.933 318 C 260.915 318, 262.474 314.141, 261.775 313.441 C 261.550 313.217, 260.834 313.566, 260.183 314.217 M 266.564 324.929 C 265.527 326.075, 264.987 327.320, 265.363 327.697 C 266.312 328.646, 269.322 325.465, 268.840 324.021 C 268.593 323.278, 267.757 323.611, 266.564 324.929 M 313.988 336.260 C 307.107 340.792, 296.982 347.374, 291.488 350.886 C 285.995 354.399, 281.350 357.661, 281.167 358.136 C 280.983 358.611, 280.412 359, 279.897 359 C 279.382 359, 277.109 360.238, 274.846 361.750 C 272.583 363.262, 269.554 365.285, 268.116 366.245 C 266.469 367.343, 266.067 367.991, 267.031 367.995 C 268.043 367.998, 270.569 372.664, 274.479 381.750 C 277.733 389.313, 282.536 400.064, 285.152 405.641 C 292.749 421.840, 299 435.941, 299 436.879 C 299 438.338, 302.999 446.881, 303.959 447.475 C 306.944 449.320, 305.052 443.604, 296.437 424.760 C 291.103 413.092, 285.718 400.836, 284.470 397.523 C 283.221 394.210, 279.680 385.808, 276.600 378.852 C 273.520 371.896, 271 365.970, 271 365.684 C 271 364.926, 277.545 361, 278.807 361 C 279.989 361, 288.266 374.047, 294.985 386.500 C 299.288 394.477, 325.926 441.126, 326.630 441.917 C 326.833 442.146, 327.258 442.075, 327.574 441.760 C 327.889 441.444, 327.383 439.682, 326.448 437.843 C 323.189 431.434, 296.681 385.469, 293.851 381.320 C 292.283 379.021, 291 376.891, 291 376.587 C 291 376.284, 289.211 373.113, 287.025 369.541 C 281.068 359.808, 280.985 358.666, 286.004 355.498 C 288.306 354.045, 290.431 353.098, 290.727 353.394 C 291.023 353.690, 292.066 352.915, 293.044 351.671 C 294.022 350.428, 296.550 348.531, 298.661 347.455 C 300.772 346.380, 302.725 345.236, 303 344.913 C 303.275 344.590, 308.450 341.044, 314.500 337.032 C 325.173 329.955, 327.886 327.989, 326.950 328.010 C 326.702 328.016, 320.870 331.729, 313.988 336.260 M 293.439 333.064 C 291.824 334.749, 291.178 335.855, 292.002 335.521 C 293.346 334.977, 297.612 330, 296.734 330 C 296.536 330, 295.053 331.379, 293.439 333.064 M 272.500 336 C 271.505 337.100, 271.140 338, 271.690 338 C 272.240 338, 273.505 337.100, 274.500 336 C 275.495 334.900, 275.860 334, 275.310 334 C 274.760 334, 273.495 334.900, 272.500 336 M 279.336 344.301 C 275.946 347.160, 271.446 350.912, 269.336 352.638 C 262.492 358.237, 266.429 357.168, 276.277 350.754 C 281.558 347.314, 286.693 343.982, 287.689 343.350 C 289.396 342.266, 289.385 342.208, 287.500 342.350 C 286.160 342.450, 285.546 341.923, 285.639 340.750 C 285.715 339.788, 285.715 339.023, 285.639 339.051 C 285.563 339.079, 282.726 341.441, 279.336 344.301 M 259.768 372 C 259.081 373.100, 258.018 374, 257.405 374 C 256.665 374, 256.893 375.931, 258.085 379.750 C 259.071 382.913, 261.293 390.225, 263.022 396 C 264.751 401.775, 266.548 407.625, 267.015 409 C 267.482 410.375, 270.192 419.600, 273.037 429.500 C 278.388 448.119, 280.428 452.972, 282.174 451.226 C 283.127 450.273, 273.552 416.388, 263.762 386.067 C 260.552 376.124, 259.975 373.270, 260.882 371.817 C 261.506 370.818, 261.792 370, 261.517 370 C 261.242 370, 260.455 370.900, 259.768 372 M 248.095 380.750 C 248.043 381.438, 246.910 382, 245.577 382 C 242.759 382, 237.395 386.180, 236.469 389.097 C 236.035 390.465, 235.460 390.807, 234.666 390.168 C 233.141 388.941, 230.046 390.193, 227.306 393.145 C 225.161 395.457, 224.297 399.074, 219.460 426 C 218.719 430.125, 217.423 437.100, 216.580 441.500 C 215.738 445.900, 214.507 452.762, 213.845 456.750 C 213.025 461.690, 212.199 464, 211.253 464 C 210.409 464, 210.060 463.315, 210.361 462.250 C 210.634 461.288, 211.328 458.025, 211.902 455 C 212.477 451.975, 213.596 446.125, 214.390 442 C 215.183 437.875, 216.575 430.450, 217.482 425.500 C 218.389 420.550, 219.536 414.925, 220.029 413 C 220.523 411.075, 221.230 406.913, 221.601 403.750 C 222.196 398.680, 222.068 398, 220.523 398 C 216.574 398, 213.675 403.808, 201.802 435.500 C 195.210 453.100, 189.414 467.920, 188.924 468.433 C 188.434 468.947, 187.751 469.084, 187.406 468.739 C 186.682 468.016, 187.726 464.912, 199.405 433.051 C 204.132 420.154, 208 409.016, 208 408.301 C 208 405.333, 204.755 407.346, 201.634 412.250 C 198.550 417.095, 186.645 437.779, 172.561 462.760 C 166.380 473.723, 165.435 474.835, 163.740 473.140 C 162.959 472.359, 162.988 471.275, 163.843 469.277 C 164.961 466.668, 164.939 466.620, 163.479 468.493 C 161.372 471.194, 161.977 474.426, 164.661 474.808 C 166.469 475.066, 167.764 473.431, 172.582 464.808 C 175.750 459.139, 180.574 450.900, 183.303 446.500 C 186.031 442.100, 191.845 431.975, 196.223 424 C 200.601 416.025, 204.584 409.080, 205.075 408.567 C 207.410 406.123, 206.995 409.731, 204.078 417.230 C 190.812 451.344, 185.042 467.556, 185.572 469.225 C 185.965 470.466, 186.917 471.010, 188.336 470.808 C 190.642 470.480, 191.980 467.228, 205.543 429 C 212.842 408.425, 216.327 400.472, 218.391 399.680 C 220.539 398.856, 220.487 401.184, 218.068 414.146 C 217.006 419.841, 215.427 428.775, 214.559 434 C 213.692 439.225, 212.249 447.325, 211.352 452 C 209.090 463.793, 209.093 465.500, 211.378 465.500 C 213.291 465.500, 215.169 457.728, 221.405 424 C 222.372 418.775, 223.845 411.125, 224.680 407 C 225.514 402.875, 226.389 398.476, 226.624 397.225 C 227.147 394.435, 230.437 391, 232.585 391 C 233.939 391, 234.088 392.061, 233.606 398.250 C 233.296 402.238, 232.920 417.875, 232.771 433 C 232.506 459.924, 232.542 460.500, 234.500 460.500 C 236.304 460.500, 236.563 459.619, 237.144 451.500 C 237.498 446.550, 237.836 430.045, 237.894 414.823 L 238 387.145 240.635 385.073 C 244.482 382.046, 245.651 382.490, 246.369 387.250 C 246.722 389.587, 247.693 396, 248.527 401.500 C 250.563 414.928, 252.637 429.198, 254.481 442.470 C 256.181 454.706, 256.738 457, 258.008 457 C 260.380 457, 260.247 455.320, 255.508 425.500 C 254.721 420.550, 253.336 411.325, 252.430 405 C 250.539 391.800, 248.236 378.913, 248.095 380.750 M 235.417 416.500 C 235.418 426.950, 235.566 431.089, 235.746 425.698 C 235.926 420.307, 235.925 411.757, 235.744 406.698 C 235.563 401.639, 235.416 406.050, 235.417 416.500 M 185.861 424.750 C 183.352 427.363, 180.004 431.300, 178.423 433.500 C 176.842 435.700, 173.037 440.650, 169.969 444.500 C 166.901 448.350, 160.805 456, 156.423 461.500 C 152.040 467, 147.204 473.188, 145.676 475.250 C 142.469 479.579, 140 480.152, 140 476.566 C 140 475.108, 142.325 471.195, 145.794 466.816 C 151.643 459.431, 161.915 445.642, 163.424 443.150 C 165.901 439.059, 157.807 446.148, 139.430 464.165 C 128.205 475.170, 118.454 483.987, 117.761 483.760 C 114.835 482.799, 115.853 478.402, 119.912 474.462 C 122.702 471.754, 123.554 470.336, 122.711 469.800 C 121.850 469.253, 121.955 469.026, 123.076 469.015 C 123.942 469.007, 125.742 467.805, 127.076 466.344 C 128.835 464.417, 127.750 464.897, 123.122 468.094 C 113.659 474.630, 111.853 475.951, 103.641 482.336 C 95.514 488.657, 92.704 489.247, 92.184 484.741 C 92.010 483.234, 91.462 482, 90.967 482 C 89.880 482, 74 491.997, 74 492.682 C 74 493.141, 75.884 492.067, 86 485.840 C 89.963 483.400, 90.543 483.274, 90.858 484.785 C 91.390 487.336, 93.023 489, 94.997 489 C 95.961 489, 100.744 485.872, 105.625 482.049 C 119.126 471.474, 119.765 471, 120.512 471 C 120.894 471, 119.785 472.619, 118.048 474.599 C 115.664 477.313, 114.963 478.971, 115.194 481.349 C 115.808 487.673, 118.427 486.004, 138.462 466.526 C 148.891 456.386, 157.599 448.265, 157.813 448.479 C 158.265 448.932, 155.064 453.323, 146.133 464.500 C 138.348 474.244, 137.248 476.390, 138.975 478.470 C 141.715 481.771, 143.844 480.090, 153.818 466.750 C 159.266 459.462, 166.598 450.073, 170.112 445.883 C 173.625 441.694, 178.460 435.705, 180.856 432.573 C 183.252 429.441, 185.449 427.116, 185.738 427.405 C 186.028 427.694, 183.955 431.993, 181.132 436.958 C 178.310 441.922, 176 446.200, 176 446.463 C 176 446.727, 173.932 450.440, 171.405 454.715 C 165.649 464.451, 164.410 466.832, 165.795 465.500 C 168.739 462.667, 192.057 420, 190.660 420 C 190.531 420, 188.371 422.137, 185.861 424.750 M 138.833 439.809 C 123.727 449.805, 115.591 455.575, 121 452.456 C 125.870 449.647, 157 428.948, 157 428.518 C 157 427.753, 157.823 427.241, 138.833 439.809 M 234.378 448 C 234.378 454.325, 234.541 456.913, 234.739 453.750 C 234.937 450.587, 234.937 445.413, 234.739 442.250 C 234.541 439.087, 234.378 441.675, 234.378 448 M 103 463.100 C 66 486.870, 65.852 486.987, 68 491 C 68.589 492.100, 69.295 493, 69.570 493 C 69.845 493, 69.606 492.133, 69.039 491.072 C 68.471 490.012, 68.266 488.471, 68.582 487.648 C 68.898 486.825, 79.696 479.320, 92.578 470.971 C 112.647 457.963, 117.200 454.832, 115.750 455.035 C 115.612 455.054, 109.875 458.683, 103 463.100" stroke="none" fill="#fcc669" fill-rule="evenodd"/><path d="M 239.537 134.199 C 239.155 150.315, 238.990 167.775, 239.171 173 C 239.352 178.225, 239.875 165.250, 240.333 144.166 C 240.791 123.083, 240.955 105.622, 240.699 105.365 C 240.442 105.108, 239.919 118.084, 239.537 134.199 M 273.116 131.790 C 271.904 138.230, 270.282 146.650, 269.510 150.500 C 268.739 154.350, 266.723 164.925, 265.031 174 C 263.340 183.075, 261.315 193.650, 260.531 197.500 C 259.748 201.350, 257.716 211.925, 256.015 221 C 254.315 230.075, 252.296 240.650, 251.530 244.500 C 250.763 248.350, 249.387 255.550, 248.473 260.500 C 247.558 265.450, 246.231 272.200, 245.523 275.500 C 244.815 278.800, 243.690 284.200, 243.023 287.500 C 241.430 295.373, 240.236 298.264, 238.912 297.446 C 238.318 297.079, 237.928 294.691, 238.045 292.139 C 238.162 289.588, 238.131 280.075, 237.975 271 L 237.691 254.500 236.946 270.379 C 236.435 281.249, 235.808 286.500, 234.958 287.026 C 234.092 287.561, 233.911 289.261, 234.361 292.647 C 236.458 308.447, 236.912 316.965, 236.058 324.480 C 233.018 351.232, 223.034 371.631, 202.574 392.890 C 187.173 408.892, 175.259 417.374, 95.820 468.891 C 81.146 478.407, 68.885 486.857, 68.574 487.669 C 67.828 489.612, 69.688 493, 71.500 493 C 72.287 493, 76.767 490.525, 81.456 487.500 C 86.145 484.475, 90.406 482, 90.924 482 C 91.443 482, 92.010 483.234, 92.184 484.741 C 92.704 489.247, 95.514 488.657, 103.641 482.336 C 111.691 476.077, 113.294 474.901, 123.122 468.059 L 129.500 463.617 126.111 467.559 C 124.247 469.726, 121.188 473.058, 119.315 474.963 C 115.839 478.495, 115.065 482.875, 117.761 483.760 C 118.454 483.987, 128.205 475.170, 139.430 464.165 C 157.807 446.148, 165.901 439.059, 163.424 443.150 C 161.915 445.642, 151.643 459.431, 145.794 466.816 C 142.325 471.195, 140 475.108, 140 476.566 C 140 480.152, 142.469 479.579, 145.676 475.250 C 148.217 471.821, 155.044 463.186, 169.989 444.500 C 173.068 440.650, 177.221 435.250, 179.217 432.500 C 181.213 429.750, 184.694 425.709, 186.952 423.519 L 191.057 419.539 189.918 422.806 C 189.292 424.602, 183.805 434.719, 177.726 445.286 C 161.248 473.932, 162.352 471.752, 163.665 473.065 C 165.442 474.842, 166.328 473.817, 172.561 462.760 C 186.645 437.779, 198.550 417.095, 201.634 412.250 C 204.755 407.346, 208 405.333, 208 408.301 C 208 409.016, 204.132 420.154, 199.405 433.051 C 187.726 464.912, 186.682 468.016, 187.406 468.739 C 187.751 469.084, 188.434 468.947, 188.924 468.433 C 189.414 467.920, 195.210 453.100, 201.802 435.500 C 213.675 403.808, 216.574 398, 220.523 398 C 222.068 398, 222.196 398.680, 221.601 403.750 C 221.230 406.912, 220.523 411.075, 220.029 413 C 219.536 414.925, 218.389 420.550, 217.482 425.500 C 216.575 430.450, 215.183 437.875, 214.390 442 C 213.596 446.125, 212.477 451.975, 211.902 455 C 211.328 458.025, 210.634 461.287, 210.361 462.250 C 210.060 463.315, 210.409 464, 211.253 464 C 212.199 464, 213.025 461.690, 213.845 456.750 C 214.507 452.762, 215.738 445.900, 216.580 441.500 C 217.423 437.100, 218.719 430.125, 219.460 426 C 224.297 399.074, 225.161 395.457, 227.306 393.145 C 230.046 390.193, 233.141 388.941, 234.666 390.168 C 235.460 390.807, 236.035 390.465, 236.469 389.097 C 237.386 386.210, 242.748 382, 245.509 382 C 246.935 382, 248.100 381.259, 248.461 380.124 C 248.788 379.092, 251.181 377.180, 253.778 375.874 C 256.375 374.568, 258.855 372.946, 259.289 372.269 C 259.723 371.593, 262.198 369.830, 264.789 368.353 C 267.380 366.876, 270.400 364.907, 271.500 363.978 C 272.600 363.049, 275.075 361.436, 277 360.394 C 278.925 359.352, 280.725 358.222, 281 357.883 C 281.275 357.544, 284.200 355.552, 287.500 353.458 C 290.800 351.363, 299.125 345.978, 306 341.491 C 326.124 328.356, 341.890 318.087, 351 312.180 C 355.675 309.148, 365.350 302.851, 372.500 298.186 C 392.884 284.887, 412.797 271.941, 434.500 257.877 C 482.082 227.043, 492.974 219.657, 493.553 217.834 C 494.231 215.696, 492.488 213, 490.428 213 C 489.698 213, 481.990 217.650, 473.300 223.332 C 464.610 229.015, 448.950 239.206, 438.500 245.979 C 397.348 272.650, 384.490 281.008, 358.500 297.983 C 329.240 317.094, 305.544 332.327, 289 342.663 C 283.225 346.271, 275.847 350.982, 272.604 353.132 C 269.362 355.283, 266.437 356.771, 266.105 356.438 C 265.435 355.769, 267.657 353.772, 280.506 343.500 C 285.322 339.650, 293.365 333.110, 298.381 328.966 C 303.396 324.822, 313.800 316.511, 321.500 310.498 C 329.200 304.484, 344.319 292.574, 355.097 284.032 C 365.876 275.489, 377.801 266.055, 381.597 263.068 C 438.408 218.359, 455.722 204.526, 456.862 202.932 C 457.612 201.885, 457.963 200.347, 457.644 199.514 C 456.223 195.812, 452.014 198.120, 433.832 212.571 C 412.231 229.741, 387.893 249.014, 357.500 273.016 C 345.400 282.572, 329.200 295.404, 321.500 301.532 C 308.010 312.267, 291.614 324.933, 283.710 330.724 C 280.184 333.307, 276.860 335.935, 267.546 343.500 C 265.515 345.150, 263.328 346.686, 262.686 346.913 C 262.044 347.141, 260.243 348.603, 258.683 350.163 C 257.123 351.724, 255.342 353, 254.726 353 C 253.787 353, 261.790 344.621, 290.011 316.054 C 300.734 305.201, 413.181 194.745, 416.750 191.560 C 419.934 188.718, 421 187.027, 421 184.814 C 421 182.436, 420.617 181.923, 419.033 182.180 C 417.163 182.484, 410.668 188.702, 352.988 245.404 C 265.729 331.182, 251.711 344.634, 251.198 343.094 C 250.966 342.397, 252.093 340.403, 253.703 338.663 C 255.313 336.924, 257.276 334.529, 258.065 333.342 C 260.379 329.860, 280.667 303.372, 289.432 292.389 C 293.869 286.828, 300.875 277.900, 305 272.549 C 312.164 263.257, 322.738 249.849, 336.585 232.500 C 340.097 228.100, 348.572 217.300, 355.417 208.500 C 362.263 199.700, 371.720 187.613, 376.432 181.640 C 384.402 171.538, 386.267 167.901, 384.147 166.591 C 382.467 165.553, 380.477 167.846, 359 195.568 C 354.875 200.893, 344.300 214.346, 335.500 225.464 C 326.700 236.582, 314.248 252.389, 307.828 260.589 C 286.986 287.213, 274.983 302.428, 272.003 306 C 267.566 311.317, 257.812 323.373, 255 327.015 C 253.625 328.796, 251.502 331.434, 250.282 332.877 C 248.219 335.316, 248.061 335.356, 248.032 333.441 C 248.014 332.309, 248.675 330.509, 249.501 329.441 C 250.326 328.374, 251.899 325.700, 252.996 323.500 C 254.093 321.300, 256.030 317.700, 257.299 315.500 C 258.569 313.300, 261.751 307.517, 264.372 302.650 C 266.993 297.782, 274.108 285.182, 280.184 274.650 C 286.260 264.117, 297.019 245.274, 304.093 232.775 C 311.167 220.276, 322.511 200.476, 329.301 188.775 C 336.091 177.074, 343.339 164.435, 345.407 160.688 C 348.863 154.428, 349.474 151, 347.135 151 C 346.348 151, 336.132 167.911, 327.199 184 C 322.947 191.658, 301.137 229.839, 293.496 243 C 289.505 249.875, 281.207 264.275, 275.055 275 C 268.904 285.725, 261.670 298.100, 258.981 302.500 C 256.292 306.900, 253.383 311.850, 252.518 313.500 C 251.653 315.150, 249.731 318.525, 248.247 321 C 243.424 329.042, 244.581 322.913, 251.437 304.098 C 255.047 294.192, 258 285.825, 258 285.505 C 258 285.185, 269.087 255.353, 282.638 219.211 C 310.190 145.725, 313.230 137.181, 312.333 135.729 C 311.988 135.171, 311.115 135.842, 310.393 137.220 C 308.992 139.893, 279.157 219.073, 274.490 232.500 C 270.329 244.476, 248.880 300.034, 245.537 307.500 C 244.798 309.150, 243.928 311.316, 243.604 312.313 C 243.279 313.311, 242.530 313.828, 241.939 313.462 C 241.348 313.097, 241.181 312.056, 241.569 311.149 C 241.957 310.242, 242.640 307.250, 243.087 304.500 C 243.534 301.750, 244.131 298.375, 244.415 297 C 244.698 295.625, 245.646 290.225, 246.521 285 C 248.443 273.527, 250.102 264.259, 252.965 249 C 255.047 237.904, 256.294 231.140, 259.601 213 C 260.453 208.325, 261.751 201.350, 262.485 197.500 C 263.219 193.650, 264.521 186.675, 265.379 182 C 267.745 169.104, 270.884 152.423, 272.624 143.500 C 275.555 128.469, 276.661 120.908, 275.990 120.494 C 275.621 120.266, 274.328 125.349, 273.116 131.790 M 238.417 223.500 C 238.418 233.950, 238.566 238.089, 238.746 232.698 C 238.926 227.307, 238.925 218.757, 238.744 213.698 C 238.563 208.639, 238.416 213.050, 238.417 223.500 M 235.417 416.500 C 235.418 426.950, 235.566 431.089, 235.746 425.698 C 235.926 420.307, 235.925 411.757, 235.744 406.698 C 235.563 401.639, 235.416 406.050, 235.417 416.500 M 234.378 448 C 234.378 454.325, 234.541 456.913, 234.739 453.750 C 234.937 450.587, 234.937 445.413, 234.739 442.250 C 234.541 439.087, 234.378 441.675, 234.378 448" stroke="none" fill="#fc3c17" fill-rule="evenodd"/></svg>