<svg width="48" height="48" xmlns="http://www.w3.org/2000/svg">
	<g id="svg_7">
		<path id="svg_2" fill="#5382a1" d="m17.80847,36.89682s-1.80294,1.04847 1.28309,1.40326c3.73864,0.42651 5.64941,0.36534 9.76942,-0.41443c0,0 1.08319,0.67919 2.59594,1.26745c-9.23596,3.95838 -20.9028,-0.22928 -13.64845,-2.25628m-1.12859,-5.16543s-2.02217,1.49685 1.06615,1.81629c3.99373,0.41201 7.14767,0.44571 12.60519,-0.60518c0,0 0.75498,0.76528 1.94193,1.18378c-11.16696,3.26533 -23.6048,0.25751 -15.61327,-2.39489"/>
		<path id="svg_3" fill="#e76f00" d="m26.19421,22.96912c2.27574,2.6201 -0.5978,4.97798 -0.5978,4.97798s5.77823,-2.98303 3.12456,-6.71849c-2.47856,-3.48367 -4.37929,-5.21438 5.91048,-11.18209c0.00013,-0.00013 -16.15155,4.03379 -8.43724,12.92259"/>
		<path id="svg_4" fill="#5382a1" d="m38.40951,40.71748s1.33421,1.09946 -1.46939,1.94981c-5.33112,1.61499 -22.18869,2.10267 -26.87166,0.06447c-1.6834,-0.73247 1.47346,-1.74877 2.46648,-1.96202c1.03563,-0.22457 1.62745,-0.18274 1.62745,-0.18274c-1.87212,-1.31882 -12.1006,2.58945 -5.19556,3.70888c18.83104,3.05386 34.32731,-1.37516 29.44267,-3.57841m-19.73403,-14.33806s-8.57483,2.03667 -3.03656,2.77626c2.33843,0.31308 7.00003,0.24225 11.34206,-0.12157c3.54865,-0.29935 7.11206,-0.93568 7.11206,-0.93568s-1.2513,0.53587 -2.15658,1.15389c-8.70759,2.29023 -25.52905,1.22472 -20.68637,-1.11778c4.09546,-1.9797 7.42539,-1.75513 7.42539,-1.75513m15.38221,8.59811c8.85167,-4.59967 4.75913,-9.02004 1.90238,-8.4244c-0.70017,0.14573 -1.01236,0.27201 -1.01236,0.27201s0.26005,-0.40718 0.75625,-0.58343c5.65132,-1.98682 9.99755,5.85987 -1.8243,8.96777c0,0 0.13721,-0.12233 0.17803,-0.23195"/>
		<path id="svg_5" fill="#e76f00" d="m28.72097,0.41013s4.90219,4.90372 -4.64952,12.44458c-7.6595,6.04884 -1.74661,9.4978 -0.00318,13.4385c-4.47085,-4.03404 -7.75195,-7.58499 -5.55073,-10.88999c3.23074,-4.85146 12.18135,-7.20362 10.20343,-14.99309"/>
		<path id="svg_6" fill="#5382a1" d="m19.54528,47.44156c8.4965,0.54388 21.54384,-0.30176 21.85272,-4.32194c0,0 -0.59386,1.52394 -7.0219,2.73442c-7.25181,1.3646 -16.19619,1.20539 -21.50111,0.33076c0.00025,-0.00025 1.08611,0.89867 6.67029,1.25677"/>
	</g>
</svg>