<svg xmlns="http://www.w3.org/2000/svg" width="226" height="273" viewBox="0 0 226 273" version="1.1"><path d="M 98.250 41.689 C 99.213 41.941, 100.787 41.941, 101.750 41.689 C 102.713 41.438, 101.925 41.232, 100 41.232 C 98.075 41.232, 97.287 41.438, 98.250 41.689 M 121.269 41.693 C 122.242 41.947, 123.592 41.930, 124.269 41.656 C 124.946 41.382, 124.150 41.175, 122.500 41.195 C 120.850 41.215, 120.296 41.439, 121.269 41.693 M 79 45.344 C 74.875 46.575, 70.600 48.160, 69.500 48.866 L 67.500 50.151 69.500 49.430 C 70.600 49.033, 75.100 47.640, 79.500 46.334 C 89.088 43.488, 89.946 43.165, 88 43.133 C 87.175 43.119, 83.125 44.114, 79 45.344 M 154.441 50.445 C 155.509 51.300, 156.821 52, 157.358 52 C 158.628 52, 158.061 51.538, 155 50.080 C 152.643 48.958, 152.611 48.978, 154.441 50.445 M 61.441 52.555 C 59.611 54.022, 59.643 54.042, 62 52.920 C 65.061 51.462, 65.628 51, 64.358 51 C 63.821 51, 62.509 51.700, 61.441 52.555 M 53.861 57.059 L 51.500 59.119 54.250 57.444 C 55.763 56.523, 57 55.597, 57 55.385 C 57 54.604, 56.165 55.050, 53.861 57.059 M 168 57.364 C 168 57.639, 169.350 58.825, 171 60 C 172.650 61.175, 174 61.911, 174 61.636 C 174 61.361, 172.650 60.175, 171 59 C 169.350 57.825, 168 57.089, 168 57.364 M 99.500 58.892 C 97.300 59.226, 102.425 59.500, 110.890 59.500 C 119.670 59.500, 124.609 59.203, 122.390 58.808 C 117.780 57.987, 105.145 58.034, 99.500 58.892 M 42.903 65.329 C 34.545 72.474, 32.188 75, 33.878 75 C 34.495 75, 35 74.523, 35 73.941 C 35 73.359, 35.520 73.203, 36.155 73.595 C 36.855 74.028, 37.038 73.871, 36.621 73.195 C 36.216 72.540, 39.037 69.533, 43.466 65.898 C 50.350 60.248, 51.650 59, 50.653 59 C 50.462 59, 46.974 61.848, 42.903 65.329 M 83.500 62.376 C 76.525 64.655, 68 68.593, 68 69.537 C 68 69.810, 70.266 68.885, 73.036 67.482 C 75.806 66.078, 81.993 63.854, 86.786 62.538 C 91.579 61.223, 94.375 60.134, 93 60.118 C 91.625 60.102, 87.350 61.118, 83.500 62.376 M 134.500 62.357 C 138.900 63.643, 143.850 65.242, 145.500 65.911 C 147.150 66.579, 148.050 66.703, 147.500 66.186 C 145.877 64.661, 135.861 61.288, 131 60.629 C 127.780 60.192, 128.776 60.684, 134.500 62.357 M 175.294 62.659 C 176.152 64.057, 186 72.386, 186 71.715 C 186 71.455, 183.431 69.051, 180.291 66.371 C 177.151 63.692, 174.902 62.022, 175.294 62.659 M 149.083 67.365 C 149.313 67.565, 150.625 68.265, 152 68.920 C 154.357 70.042, 154.389 70.022, 152.559 68.555 C 150.966 67.279, 147.711 66.164, 149.083 67.365 M 62.732 72.536 C 60.679 73.931, 59 75.287, 59 75.550 C 59 75.813, 60.800 74.837, 63 73.381 C 66.493 71.070, 67.674 70, 66.732 70 C 66.585 70, 64.785 71.141, 62.732 72.536 M 155 70.350 C 155 70.581, 156.180 71.543, 157.623 72.489 C 159.066 73.434, 159.941 73.713, 159.567 73.109 C 158.854 71.955, 155 69.626, 155 70.350 M 28.707 80.250 C 25.513 84.211, 20.889 91.121, 22.182 90 C 23.274 89.055, 32.920 76, 32.527 76 C 32.311 76, 30.592 77.912, 28.707 80.250 M 51.731 80.962 C 43.938 88.086, 33.546 103.590, 31.600 111 C 31.239 112.375, 32.256 110.736, 33.861 107.358 C 38.193 98.239, 44.360 89.649, 51.760 82.429 C 59.539 74.839, 59.520 73.844, 51.731 80.962 M 164 76.208 C 164 76.396, 167.450 79.914, 171.667 84.025 C 176.856 89.084, 178.321 90.174, 176.200 87.397 C 173.541 83.917, 164 75.167, 164 76.208 M 130.269 79.693 C 131.242 79.947, 132.592 79.930, 133.269 79.656 C 133.946 79.382, 133.150 79.175, 131.500 79.195 C 129.850 79.215, 129.296 79.439, 130.269 79.693 M 80.435 105 C 80.435 119.025, 80.575 124.763, 80.747 117.750 C 80.919 110.738, 80.919 99.263, 80.747 92.250 C 80.575 85.238, 80.435 90.975, 80.435 105 M 122.866 80.250 C 122.262 81.376, 122.471 193.966, 123.080 195.500 C 123.516 196.600, 123.902 171.063, 123.937 138.750 C 123.991 88.558, 123.807 78.496, 122.866 80.250 M 140.413 105.792 L 140.500 131.500 161.500 131.532 L 182.500 131.565 162.250 131.262 L 142 130.959 142 106.038 C 142 92.332, 141.623 80.885, 141.163 80.601 C 140.703 80.316, 140.365 91.652, 140.413 105.792 M 98.242 137.550 C 98.060 180.314, 97.699 194.901, 96.800 195.800 C 95.867 196.733, 95.874 197, 96.831 197 C 97.509 197, 98.278 196.438, 98.541 195.750 C 98.804 195.063, 98.899 168.850, 98.751 137.500 L 98.483 80.500 98.242 137.550 M 181.463 95.750 C 183.004 98.088, 184.456 100, 184.689 100 C 185.411 100, 181.582 93.914, 180.080 92.673 C 179.299 92.028, 179.921 93.412, 181.463 95.750 M 202.285 96 C 202.603 96.825, 204.249 101.029, 205.943 105.342 C 209.457 114.293, 212 127.373, 212 136.500 C 212 144.853, 209.549 158.443, 206.646 166.190 C 202.934 176.092, 202.766 176.684, 204.547 173.600 C 212.353 160.078, 214.953 134.907, 210.483 116.129 C 208.782 108.982, 204.287 97.026, 202.728 95.500 C 202.038 94.826, 201.894 94.988, 202.285 96 M 15.044 104.613 C 12.445 111.558, 10.009 121.575, 10.085 125 C 10.116 126.375, 10.958 123.675, 11.956 119 C 12.955 114.325, 14.712 108.052, 15.862 105.060 C 17.012 102.067, 17.782 99.449, 17.574 99.241 C 17.366 99.032, 16.227 101.450, 15.044 104.613 M 186.695 104.487 C 187.610 106.406, 188.536 107.797, 188.753 107.580 C 189.210 107.123, 186.175 101, 185.490 101 C 185.239 101, 185.781 102.569, 186.695 104.487 M 29.006 118.712 C 26.829 127.051, 26.566 141.736, 28.427 151.078 C 30.253 160.243, 36.029 173.131, 41.551 180.363 C 43.397 182.781, 44.703 185.038, 44.454 185.380 C 44.204 185.721, 44.267 185.808, 44.594 185.572 C 44.921 185.337, 46.569 186.717, 48.255 188.638 C 54.926 196.235, 69.470 205.671, 81 209.881 C 93.564 214.469, 111.375 216.141, 124.678 213.982 C 131.089 212.942, 144.457 209.124, 143.842 208.509 C 143.649 208.316, 139.668 209.316, 134.996 210.731 C 127.508 212.999, 124.720 213.306, 111.500 213.319 C 94.904 213.336, 86.258 211.649, 74.322 206.064 C 53.249 196.203, 36.135 176.385, 30.411 155.214 C 27.998 146.291, 27.520 130.828, 29.385 122.068 C 31.171 113.684, 30.914 111.407, 29.006 118.712 M 9.343 136.500 C 9.346 140.900, 9.522 142.576, 9.733 140.224 C 9.945 137.872, 9.942 134.272, 9.727 132.224 C 9.512 130.176, 9.339 132.100, 9.343 136.500 M 194.336 137 C 194.336 141.125, 194.513 142.813, 194.728 140.750 C 194.944 138.688, 194.944 135.313, 194.728 133.250 C 194.513 131.188, 194.336 132.875, 194.336 137 M 49.750 131.746 C 55.388 131.924, 64.612 131.924, 70.250 131.746 C 75.888 131.568, 71.275 131.422, 60 131.422 C 48.725 131.422, 44.112 131.568, 49.750 131.746 M 39.343 140.500 C 39.346 144.900, 39.522 146.576, 39.733 144.224 C 39.945 141.872, 39.942 138.272, 39.727 136.224 C 39.512 134.176, 39.339 136.100, 39.343 140.500 M 182.185 138.500 C 181.780 149.941, 183.690 149, 160.883 149 C 145.742 149, 140.956 149.298, 140.816 150.250 C 140.234 154.193, 140.625 196.609, 141.235 195.652 C 141.639 195.019, 141.976 184.488, 141.985 172.250 L 142 150 161.378 150 C 176.816 150, 180.993 149.714, 181.923 148.592 C 182.659 147.707, 182.963 144.464, 182.744 139.842 C 182.403 132.609, 182.394 132.589, 182.185 138.500 M 193.195 147.500 C 193.215 149.150, 193.439 149.704, 193.693 148.731 C 193.947 147.758, 193.930 146.408, 193.656 145.731 C 193.382 145.054, 193.175 145.850, 193.195 147.500 M 10.194 148.500 C 10.192 151.602, 12.718 162.666, 12.820 160 C 12.851 159.175, 12.274 155.575, 11.536 152 C 10.799 148.425, 10.195 146.850, 10.194 148.500 M 60.250 149.738 L 80 150.042 80 172.962 C 80 185.568, 80.338 196.091, 80.750 196.347 C 81.162 196.603, 81.275 186.167, 81 173.156 L 80.500 149.500 60.500 149.467 L 40.500 149.433 60.250 149.738 M 189.098 162.435 C 184.796 174.621, 171.680 191.216, 160.484 198.639 C 155.594 201.881, 153.372 204.050, 157.500 201.551 C 171.651 192.987, 183.933 178.569, 189.509 163.976 C 190.999 160.076, 192.026 156.692, 191.789 156.456 C 191.553 156.220, 190.342 158.910, 189.098 162.435 M 14.573 167 C 14.941 168.375, 15.659 170.175, 16.169 171 C 16.813 172.042, 16.892 171.737, 16.427 170 C 16.059 168.625, 15.341 166.825, 14.831 166 C 14.187 164.958, 14.108 165.263, 14.573 167 M 18 175.642 C 18 176.179, 18.700 177.491, 19.555 178.559 C 21.022 180.389, 21.042 180.357, 19.920 178 C 18.462 174.939, 18 174.372, 18 175.642 M 23.693 186.077 C 24.687 187.769, 26.139 189.682, 26.920 190.327 C 27.701 190.972, 27.079 189.588, 25.537 187.250 C 22.300 182.342, 21.024 181.530, 23.693 186.077 M 37.215 202.502 C 39.808 205.198, 42.082 207.200, 42.268 206.952 C 42.453 206.703, 40.332 204.497, 37.553 202.050 L 32.500 197.600 37.215 202.502 M 183.946 202.750 L 180.500 206.500 184.250 203.054 C 187.740 199.846, 188.460 199, 187.696 199 C 187.529 199, 185.842 200.688, 183.946 202.750 M 149 205.500 C 146.525 206.825, 144.855 207.930, 145.290 207.955 C 146.352 208.016, 154 204.086, 154 203.480 C 154 202.817, 154.041 202.800, 149 205.500 M 44.447 208.914 C 45.199 210.131, 54 216.329, 54 215.642 C 54 215.392, 51.703 213.537, 48.896 211.521 C 46.088 209.504, 44.086 208.331, 44.447 208.914 M 154.500 222.622 C 150.650 224.520, 148.625 225.773, 150 225.407 C 153.002 224.607, 162 220.166, 162 219.483 C 162 218.875, 162.678 218.591, 154.500 222.622 M 62 220.490 C 62 221.175, 68.123 224.210, 68.580 223.753 C 68.797 223.536, 67.406 222.610, 65.487 221.695 C 63.569 220.781, 62 220.239, 62 220.490 M 72.500 225.387 C 74.150 226.138, 76.625 227.029, 78 227.366 C 80.008 227.859, 79.909 227.710, 77.500 226.613 C 75.850 225.862, 73.375 224.971, 72 224.634 C 69.992 224.141, 70.091 224.290, 72.500 225.387 M 136 228.667 C 131.325 229.976, 129.323 230.821, 131.552 230.544 C 135.720 230.025, 148.686 226.166, 146 226.243 C 145.175 226.267, 140.675 227.357, 136 228.667 M 81.056 228.356 C 81.892 229.243, 95.739 232.013, 98.815 231.910 C 100.292 231.860, 98.350 231.246, 94.500 230.546 C 90.650 229.845, 85.925 228.933, 84 228.519 C 82.075 228.105, 80.750 228.032, 81.056 228.356 M 121.762 231.707 C 123.006 231.946, 124.806 231.937, 125.762 231.687 C 126.718 231.437, 125.700 231.241, 123.500 231.252 C 121.300 231.263, 120.518 231.468, 121.762 231.707 M 108.250 232.716 C 109.763 232.945, 112.237 232.945, 113.750 232.716 C 115.263 232.487, 114.025 232.300, 111 232.300 C 107.975 232.300, 106.737 232.487, 108.250 232.716" stroke="none" fill="#4b7caa" fill-rule="evenodd"/><path d="M 97.500 42.040 C 87.735 43.320, 73.131 47.806, 63.500 52.484 C 53.710 57.239, 36.266 70.728, 36.833 73.104 C 37.017 73.872, 36.841 74.174, 36.442 73.776 C 35.484 72.818, 31.063 77.835, 25.063 86.691 C 16.299 99.627, 10.040 120.220, 10.013 136.215 C 9.988 150.801, 15.100 169.962, 22.286 182.226 C 40.992 214.145, 78.309 233.848, 115.939 231.674 C 164.475 228.870, 202.626 196.383, 210.535 151.119 C 213.386 134.805, 211.653 119.661, 205.018 102.924 C 198.227 85.793, 187.690 72.222, 172.422 60.942 C 152.138 45.958, 123.238 38.667, 97.500 42.040 M 95.828 59.496 C 81.716 61.871, 71.482 66.274, 58.443 75.578 C 39.301 89.237, 27.070 112.869, 27.017 136.292 C 26.983 151.601, 32.605 168.646, 41.551 180.363 C 43.397 182.781, 44.703 185.038, 44.454 185.380 C 44.204 185.721, 44.267 185.808, 44.594 185.572 C 44.921 185.337, 46.569 186.717, 48.255 188.638 C 54.926 196.235, 69.470 205.671, 81 209.881 C 88.874 212.756, 101.990 215.001, 110.860 214.992 C 133.541 214.970, 155.806 205.961, 171.423 190.488 C 184.303 177.726, 190.778 165.365, 193.773 147.827 C 195.188 139.539, 195.250 136.779, 194.212 128.558 C 191.523 107.266, 181.230 89.124, 164.842 76.790 C 151.753 66.939, 142.678 62.811, 127.715 59.902 C 116.610 57.744, 106.971 57.621, 95.828 59.496 M 81 104.418 C 81 117.848, 80.727 129.548, 80.393 130.418 C 79.868 131.787, 77.110 132, 59.893 132 L 40 132 40 140.479 L 40 148.959 60.250 149.229 L 80.500 149.500 81 173 L 81.500 196.500 88.340 196.798 C 92.522 196.980, 95.728 196.641, 96.590 195.925 C 97.773 194.943, 98 185.532, 98 137.378 L 98 80 89.500 80 L 81 80 81 104.418 M 124 138.500 L 124 197 131.886 197 L 139.773 197 140.369 192.750 C 140.696 190.412, 140.757 180.400, 140.504 170.500 C 140.251 160.600, 140.290 151.713, 140.590 150.750 C 141.085 149.161, 142.953 149, 160.951 149 C 183.739 149, 181.961 149.907, 181.986 138.270 L 182 132.041 161.250 131.770 L 140.500 131.500 140.355 108 C 140.275 95.075, 140.162 83.487, 140.105 82.250 C 140.005 80.113, 139.599 80, 132 80 L 124 80 124 138.500" stroke="none" fill="#136fb6" fill-rule="evenodd"/></svg>