<svg width="48" height="48" xmlns="http://www.w3.org/2000/svg">
	<g id="svg_7">
		<path id="svg_1" fill="#f44336" d="m34.70818,47.89839l-21.41636,0a7.13879,7.16357 0 0 1 -7.13879,-7.16357l0,-33.42999a7.13879,7.16357 0 0 1 7.13879,-7.16357l15.68153,0a2.3796,2.38786 0 0 1 1.66572,0.69248l10.51781,10.55432a2.3796,2.38786 0 0 1 0.69008,1.6715l0,27.67525a7.13879,7.16357 0 0 1 -7.13879,7.16357z" class="cls-1"/>
		<path id="svg_2" fill="#ff8a80" d="m40.18125,13.84756l-8.56654,0a3.56939,3.58178 0 0 1 -3.56939,-3.58178l0,-8.59628a1.30878,1.31332 0 0 1 2.23682,-0.93126l10.82716,10.86475a1.30878,1.31332 0 0 1 -0.92804,2.24458z" class="cls-2"/>
		<path id="svg_3" fill="#ffebee" d="m14.21986,41.04524a1.07082,1.07454 0 0 1 -1.21359,-1.21781l0,-6.99642a1.07082,1.07454 0 0 1 1.1898,-1.21781a1.07082,1.07454 0 0 1 1.1898,1.02678a1.85608,1.86253 0 0 1 0.83286,-0.76411a2.54617,2.55501 0 0 1 1.21359,-0.28654a2.78413,2.79379 0 0 1 1.52294,0.42981a2.85551,2.86543 0 0 1 1.02323,1.21781a4.75919,4.77571 0 0 1 0,3.74893a2.85551,2.86543 0 0 1 -3.71217,1.36108a2.04645,2.05356 0 0 1 -0.83286,-0.71636l0,2.17295a1.1898,1.19393 0 0 1 -0.30935,0.90739a1.23739,1.24169 0 0 1 -0.90425,0.3343zm2.3796,-4.20263a1.14221,1.14617 0 0 0 0.90425,-0.42981a1.92747,1.93416 0 0 0 0.33314,-1.31332a1.95127,1.95804 0 0 0 -0.33314,-1.31332a1.1898,1.19393 0 0 0 -0.90425,-0.40594a1.21359,1.21781 0 0 0 -0.92804,0.40594a2.11784,2.12519 0 0 0 -0.33314,1.31332a2.07025,2.07743 0 0 0 0.33314,1.31332a1.14221,1.14617 0 0 0 0.99943,0.42981l-0.07139,0z" class="cls-3"/>
		<path id="svg_4" fill="#ffebee" d="m24.40453,38.60963a2.61755,2.62664 0 0 1 -1.49914,-0.40594a2.90311,2.91318 0 0 1 -1.04702,-1.21781a4.75919,4.77571 0 0 1 0,-3.74893a2.90311,2.91318 0 0 1 1.04702,-1.21781a2.64135,2.65052 0 0 1 1.49914,-0.42981a2.52237,2.53113 0 0 1 1.1898,0.28654a2.16543,2.17295 0 0 1 0.83286,0.6686l0,-2.60276a1.07082,1.07454 0 0 1 1.21359,-1.21781a1.166,1.17005 0 0 1 0.88045,0.31042a1.1898,1.19393 0 0 1 0.30935,0.90739l0,7.42623a1.1898,1.19393 0 0 1 -2.3796,0.19103a1.80849,1.81477 0 0 1 -0.80906,0.76411a2.71274,2.72216 0 0 1 -1.23739,0.28654zm0.78527,-1.76701a1.14221,1.14617 0 0 0 0.90425,-0.42981a1.90368,1.91028 0 0 0 0.35694,-1.31332a1.95127,1.95804 0 0 0 -0.35694,-1.31332a1.1898,1.19393 0 0 0 -0.90425,-0.40594a1.166,1.17005 0 0 0 -0.90425,0.40594a1.95127,1.95804 0 0 0 -0.35694,1.31332a1.90368,1.91028 0 0 0 0.35694,1.31332a1.09461,1.09841 0 0 0 0.90425,0.42981z" class="cls-3"/>
		<path id="svg_5" fill="#ffebee" d="m32.37617,38.58575a1.09461,1.09841 0 0 1 -1.21359,-1.21781l0,-3.79669l-0.35694,0a0.80906,0.81187 0 0 1 -0.92804,-0.90739c0,-0.59696 0.30935,-0.88351 0.92804,-0.88351l0.33314,0a2.85551,2.86543 0 0 1 0.80906,-2.07743a3.61698,3.62954 0 0 1 2.18923,-0.85963l0.40453,0a0.92804,0.93126 0 0 1 0.69008,0a0.83286,0.83575 0 0 1 0.35694,0.40594a1.30878,1.31332 0 0 1 0,0.52533a0.90425,0.90739 0 0 1 -0.21416,0.45369a0.64249,0.64472 0 0 1 -0.42833,0.23879l-0.19037,0a1.57053,1.57599 0 0 0 -0.97563,0.28654a0.97563,0.97902 0 0 0 -0.26176,0.74024l0,0.21491l0.76147,0c0.61869,0 0.92804,0.28654 0.92804,0.88351a0.80906,0.81187 0 0 1 -0.92804,0.90739l-0.76147,0l0,3.82057a1.07082,1.07454 0 0 1 -1.14221,1.26556z" class="cls-3"/>
	</g>
</svg>